<svg viewBox="0 0 351.96 387.74" xmlns:xlink="http://www.w3.org/1999/xlink" xmlns="http://www.w3.org/2000/svg"><defs><style>.cls-1,.cls-2,.cls-3,.cls-4,.cls-5,.cls-6{fill-rule:evenodd;}.cls-1{fill:url(#linear-gradient);}.cls-2{fill:url(#linear-gradient-2);}.cls-4,.cls-9{fill:#fff;}.cls-5{opacity:0.05;}.cls-6{fill:url(#linear-gradient-3);}.cls-7{fill:url(#linear-gradient-4);}.cls-8{fill:#754799;}.cls-10,.cls-12{opacity:0.2;}.cls-11{fill:#9e6e6c;opacity:0.1;}.cls-12{fill:#020202;}</style><linearGradient gradientUnits="userSpaceOnUse" x2="175.98" y1="387.74" x1="175.98" id="linear-gradient"><stop stop-color="#f93e54" offset="0"></stop><stop stop-color="#ff7f7f" offset="1"></stop></linearGradient><linearGradient gradientUnits="userSpaceOnUse" y2="124.5" x2="287.8" y1="52.75" x1="287.8" id="linear-gradient-2"><stop stop-color="#fff" offset="0"></stop><stop stop-color="#f8f8f8" offset="0.25"></stop><stop stop-color="#f1f1f1" offset="0.67"></stop><stop stop-color="#ededed" offset="0.77"></stop><stop stop-color="#e0e0e0" offset="0.88"></stop><stop stop-color="#cbcbcb" offset="0.98"></stop><stop stop-color="#c7c7c7" offset="1"></stop></linearGradient><linearGradient xlink:href="#linear-gradient-2" y2="114.5" x2="74.52" y1="42.75" x1="74.52" id="linear-gradient-3"></linearGradient><linearGradient gradientUnits="userSpaceOnUse" y2="99.95" x2="178.16" y1="146.63" x1="178.16" id="linear-gradient-4"><stop stop-color="#3d1a59" offset="0"></stop><stop stop-color="#2b032b" offset="0.99"></stop></linearGradient></defs><g data-name="图层 2" id="图层_2"><g data-name="Pre-Made Monsters" id="Pre-Made_Monsters"><path d="M349.1,253.78H344a2.91,2.91,0,0,1-.6-.06c-.2.77-.45,1.57-.74,2.38l.13,0,5.75,1.59a3.36,3.36,0,1,1-1.79,6.47L341,262.59a3.47,3.47,0,0,1-1-.46c-.55,1.07-1.15,2.12-1.76,3.14l4.69,2.31a3.07,3.07,0,1,1-2.72,5.51l-4.89-2.41a4.48,4.48,0,0,1-.56-.36,30.19,30.19,0,0,1-2.28,2.57,2.18,2.18,0,0,1,.45.46l2.53,3.48a2.42,2.42,0,1,1-3.91,2.84l-2.54-3.48a2.31,2.31,0,0,1-.36-.78,2.08,2.08,0,0,1-.74,0c-2.92-.42-12.05-4.27-20.93-8.24-5.11,41.54-18.74,59.6-30.09,67.41.23,9.4.74,36.11-.66,41.1a.21.21,0,0,1,0,.07,3,3,0,0,1,1.58,1.94l.64,2.46a3,3,0,0,1-2.18,3.68l-.64.16a3,3,0,0,1-3.68-2.17l-.63-2.46h0c-.61.23-1.25.44-1.93.63a.76.76,0,0,1,.06.16l.63,2.46a3,3,0,0,1-2.17,3.68l-.64.16a3,3,0,0,1-3.68-2.17l-.64-2.46a3.11,3.11,0,0,1-.09-.6l-.37,0-.14,2.79a3.86,3.86,0,0,1-4.05,3.66l-.85,0a3.87,3.87,0,0,1-3.66-4.06l.13-2.41a27.23,27.23,0,0,1-3-.53l-1.56,3.3a4.94,4.94,0,0,1-6.56,2.33l-1-.47a4.9,4.9,0,0,1-2.33-6.55l1.77-3.73a5,5,0,0,1,1.15-1.55,124,124,0,0,1-4-27.34c-13.22,2.43-33.53,4.48-63.39,3.73-28.22-.71-46.83-2.62-58.91-4.58A123.72,123.72,0,0,1,112,373a4.72,4.72,0,0,1,1.15,1.55l1.76,3.73a4.92,4.92,0,0,1-2.35,6.55l-1,.46a4.92,4.92,0,0,1-6.55-2.35l-1.56-3.3a29.19,29.19,0,0,1-3,.52l.11,2.42a3.87,3.87,0,0,1-3.67,4l-.84,0a3.86,3.86,0,0,1-4-3.67l-.14-2.8-.37,0a3.33,3.33,0,0,1-.09.61l-.64,2.45a3,3,0,0,1-3.69,2.16l-.64-.17a3,3,0,0,1-2.16-3.68L85,379a1.66,1.66,0,0,1,.06-.16c-.68-.2-1.32-.41-1.93-.63h0l-.64,2.45a3,3,0,0,1-3.69,2.17l-.64-.17A3,3,0,0,1,76,379l.64-2.46a3,3,0,0,1,1.59-1.93l0-.07c-1.35-4.86-.81-30.28-.55-40.3-11.37-8.06-24.89-26.45-29.82-68.37-9.72,4.4-20.62,9.1-23.87,9.56a2,2,0,0,1-.73,0,2.33,2.33,0,0,1-.37.78l-2.53,3.49a2.42,2.42,0,0,1-3.92-2.85L19,273.32a2.23,2.23,0,0,1,.46-.46,28.58,28.58,0,0,1-2.29-2.57,3.48,3.48,0,0,1-.55.36l-4.9,2.41A3.07,3.07,0,1,1,9,267.55l4.69-2.31c-.62-1-1.21-2.07-1.76-3.14a3.33,3.33,0,0,1-1,.46l-5.75,1.59a3.35,3.35,0,1,1-1.8-6.46l5.75-1.6.13,0c-.28-.81-.53-1.61-.73-2.38a3.05,3.05,0,0,1-.6.06H2.85a2.86,2.86,0,0,1,0-5.71H7.93a2.76,2.76,0,0,1,.82.14,14.06,14.06,0,0,1,.35-2.71l-2.4-3.41a3.07,3.07,0,0,1,5-3.54L14.87,243a2.53,2.53,0,0,1,.2.36,67.8,67.8,0,0,0,30.87-14.28c0-3.14,0-6.34.13-9.66C49.21,96.14,70.93-4.68,183.77.17c102,3,122.18,100.76,125.2,219.34.11,4.15.14,8.13.13,12a68.83,68.83,0,0,0,27.79,11.87,2.53,2.53,0,0,1,.2-.36l3.14-4.47a3.08,3.08,0,0,1,5,3.54L343,245.37a5,5,0,0,1,1.07,2.7h5.08a2.86,2.86,0,1,1,0,5.71Z" class="cls-1"></path><path d="M287.8,52.75a35.88,35.88,0,1,1-35.88,35.88A35.88,35.88,0,0,1,287.8,52.75Z" class="cls-2"></path><path d="M287.8,83.34a5.29,5.29,0,1,1-5.29,5.29A5.28,5.28,0,0,1,287.8,83.34Z" class="cls-3"></path><path d="M286.49,85.41c.13,1.39-.67,2.33-1.7,1.84s-2.66-.45-2.91-1.5a2.13,2.13,0,0,1,2-2.39,2.35,2.35,0,0,1,2.65,2Z" class="cls-4"></path><path d="M252.87,85.43a35,35,0,1,0,66.72-14.91,38.7,38.7,0,1,1-63-.84A34.82,34.82,0,0,0,252.87,85.43Z" class="cls-5"></path><path d="M74.52,42.75A35.88,35.88,0,1,1,38.64,78.63,35.87,35.87,0,0,1,74.52,42.75Z" class="cls-6"></path><path d="M74.52,73.34a5.29,5.29,0,1,1-5.28,5.29A5.29,5.29,0,0,1,74.52,73.34Z" class="cls-3"></path><path d="M73.22,75.41c.13,1.39-.67,2.33-1.71,1.84s-2.65-.45-2.9-1.5a2.12,2.12,0,0,1,2-2.39,2.35,2.35,0,0,1,2.65,2Z" class="cls-4"></path><path d="M39.6,75.43a35,35,0,1,0,66.71-14.91,38.7,38.7,0,1,1-63-.84A34.82,34.82,0,0,0,39.6,75.43Z" class="cls-5"></path><path d="M233.81,142.37c-5.18,2.84-20.69,4.26-20.69,4.26H145.18s-17.79-1.49-23.09-4.5c-7.13-4-13.78-10.78-5.79-20.23a34.23,34.23,0,0,1,4.15-4c.55-.47,1.15-.94,1.79-1.43A83.76,83.76,0,0,1,133,109.73a9.83,9.83,0,0,1,1-.58c3.2-1.71,14.73-6.7,43.11-9.2h2.15c34.54,3,44.12,9.78,44.12,9.78C253.52,126,243.87,136.84,233.81,142.37Z" class="cls-7"></path><path d="M204.8,142.81c0,1.29,0,2.58-.14,3.82H155.15c-.09-1.24-.14-2.53-.14-3.82,0-18.74,11.16-34,24.91-34S204.8,124.07,204.8,142.81Z" class="cls-8"></path><path d="M130.13,120.88c-4.78.71-6.92-1.88-7.89-4.44A83.76,83.76,0,0,1,133,109.73a9.83,9.83,0,0,1,1-.58C135.23,113.15,136.34,119.94,130.13,120.88Z" class="cls-9"></path><circle r="3.09" cy="198.23" cx="105.91" class="cls-10"></circle><circle r="3.09" cy="198.23" cx="248.86" class="cls-10"></circle><rect rx="30.47" height="110.91" width="68.55" y="192.32" x="143.46" class="cls-11"></rect><path d="M180.27,293a2.54,2.54,0,0,1-2.54,2.54h0a2.54,2.54,0,0,1-2.54-2.54v-5.08a2.54,2.54,0,0,1,2.54-2.54h0a2.54,2.54,0,0,1,2.54,2.54Z" class="cls-12"></path></g></g></svg>